<svg viewBox="0 0 200 172" fill="none" xmlns="http://www.w3.org/2000/svg">
<g clip-path="url(#clip0)">
<path d="M58.7761 168.997C61.9867 166.284 63.9369 161.998 63.4255 157.826C62.914 153.654 59.7464 149.818 55.6375 148.933C51.5286 148.047 46.8447 150.499 45.5967 154.513C44.9099 146.774 44.1184 138.712 40.0041 132.122C36.2788 126.155 29.8264 121.885 22.8335 121.121C15.8406 120.357 8.47794 123.242 4.11671 128.762C-0.244514 134.281 -1.31234 142.305 1.74215 148.642C3.99228 153.31 8.13783 156.784 12.4813 159.61C26.5167 168.666 43.3503 172.349 59.8849 169.981" fill="#F6F6F6"/>
<path d="M11.0319 123.825C16.8019 128.524 22.0953 133.781 26.8355 139.518C34.2538 148.465 40.2569 158.497 44.6354 169.263C44.9559 170.049 43.6805 170.39 43.3636 169.614C40.5791 162.807 37.1343 156.289 33.0783 150.154C26.7536 140.57 19.0049 132.006 10.0992 124.757C9.44076 124.221 10.3788 123.293 11.0319 123.825V123.825Z" fill="white"/>
<path d="M61.7304 168.997C58.5198 166.284 56.5697 161.998 57.0811 157.826C57.5925 153.654 60.7602 149.818 64.8691 148.933C68.978 148.047 73.6619 150.499 74.9099 154.513C75.5967 146.774 76.3882 138.712 80.5024 132.122C84.2278 126.155 90.6802 121.885 97.6731 121.121C104.666 120.357 112.029 123.242 116.39 128.762C120.751 134.281 121.819 142.305 118.764 148.642C116.514 153.31 112.369 156.784 108.025 159.61C93.9899 168.666 77.1562 172.349 60.6216 169.981" fill="#F6F6F6"/>
<path d="M108.738 123.825C102.968 128.524 97.6746 133.781 92.9344 139.518C85.5161 148.465 79.513 158.497 75.1345 169.263C74.814 170.049 76.0894 170.39 76.4063 169.614C83.5704 152.116 95.0072 136.694 109.671 124.757C110.329 124.221 109.391 123.293 108.738 123.825V123.825Z" fill="white"/>
<path d="M70.5209 77.0166C76.4605 77.0166 81.2755 72.2016 81.2755 66.262C81.2755 60.3224 76.4605 55.5074 70.5209 55.5074C64.5813 55.5074 59.7664 60.3224 59.7664 66.262C59.7664 72.2016 64.5813 77.0166 70.5209 77.0166Z" fill="#F2F2F2"/>
<path d="M37.3618 29.1892H111.458V33.2431H46.8208C43.0204 33.2431 39.2572 33.9916 35.7461 35.4459C32.235 36.9003 29.0447 39.032 26.3574 41.7193C23.6701 44.4066 21.5384 47.5968 20.084 51.108C18.6297 54.6191 17.8811 58.3823 17.8811 62.1827V108.24H9.77341C9.41503 108.24 9.07133 108.097 8.81791 107.844C8.5645 107.59 8.42213 107.247 8.42212 106.888V58.1288C8.42212 54.3284 9.17066 50.5652 10.625 47.0541C12.0794 43.543 14.2111 40.3527 16.8984 37.6654C19.5857 34.9781 22.7759 32.8464 26.2871 31.3921C29.7982 29.9377 33.5614 29.1892 37.3618 29.1892Z" fill="#F6F6F6"/>
<path d="M53 169.579V108H71.0399V169.579C71.0395 169.992 70.8748 170.389 70.5822 170.682C70.2895 170.975 69.8927 171.139 69.4788 171.14H54.5611C54.1472 171.139 53.7504 170.975 53.4578 170.682C53.1651 170.389 53.0005 169.992 53 169.579Z" fill="#191A1D"/>
<path d="M4.60596 106.852V56.7791C4.61496 48.8078 7.78551 41.1656 13.422 35.5291C19.0586 29.8925 26.7008 26.722 34.672 26.713H111.111V108.586H6.34056C5.88068 108.586 5.43979 108.403 5.1146 108.078C4.78941 107.753 4.60648 107.312 4.60596 106.852ZM110.417 27.4068H34.672C26.8847 27.4156 19.4189 30.513 13.9124 36.0195C8.40599 41.526 5.3086 48.9918 5.2998 56.7791V106.852C5.3001 107.128 5.40985 107.392 5.60497 107.587C5.80008 107.783 6.06463 107.892 6.34056 107.893H110.417V27.4068Z" fill="#191A1D"/>
<path d="M70.521 71.8128C68.8654 71.8109 67.2782 71.1524 66.1075 69.9817C64.9368 68.811 64.2783 67.2238 64.2764 65.5682V20.8153C64.2761 20.5394 64.1664 20.2748 63.9713 20.0797C63.7762 19.8846 63.5116 19.7748 63.2357 19.7745H38.9512C38.4913 19.774 38.0504 19.5911 37.7252 19.2659C37.4 18.9407 37.2171 18.4998 37.2166 18.0399V1.73461C37.2171 1.27472 37.4 0.833828 37.7252 0.508641C38.0504 0.183454 38.4913 0.000532538 38.9512 0H75.031C75.4909 0.000526124 75.9318 0.183448 76.257 0.508636C76.5822 0.833824 76.7651 1.27472 76.7656 1.73461V65.5682C76.7638 67.2238 76.1053 68.811 74.9346 69.9817C73.7639 71.1524 72.1766 71.8109 70.521 71.8128Z" fill="#007bff"/>
<path d="M114.775 26C120.008 25.9891 125.032 28.0576 128.74 31.7505C132.449 35.4434 134.538 40.4583 134.549 45.6918V102.694H173.404C174.965 102.691 176.463 103.308 177.569 104.409C178.675 105.511 179.299 107.006 179.302 108.567H95V45.6918C95.011 40.4583 97.1005 35.4434 100.809 31.7505C104.517 28.0576 109.541 25.9891 114.775 26Z" fill="#191A1D"/>
<path d="M109.141 58.4797L113.236 75.3942L193.333 56.0042L189.239 39.0897C189.189 38.8829 189.088 38.6919 188.945 38.5345C188.802 38.3772 188.622 38.2584 188.421 38.1894C188.272 38.1372 188.115 38.1136 187.958 38.1198L141.658 14.1468C141.387 14.0083 141.075 13.9713 140.779 14.0425C140.482 14.1137 140.221 14.2884 140.043 14.5351L117.729 45.6518L109.317 57.3857C109.301 57.4062 109.291 57.4298 109.285 57.4549C109.28 57.4799 109.28 57.5058 109.286 57.5308C109.114 57.8157 109.062 58.1567 109.141 58.4797Z" fill="white"/>
<path d="M109.286 57.5308C109.29 57.5528 109.298 57.5738 109.31 57.5926C109.322 57.6114 109.338 57.6276 109.356 57.6403C109.378 57.6552 109.403 57.6655 109.428 57.6706C109.454 57.6757 109.481 57.6755 109.507 57.67C109.548 57.6589 109.585 57.6334 109.61 57.5981L109.639 57.5581L110.077 56.9456L118.032 45.8565L140.339 14.7469C140.466 14.5706 140.653 14.4458 140.864 14.3951C141.075 14.3445 141.298 14.3713 141.491 14.4707L187.433 38.2579L187.845 38.4719C187.862 38.4789 187.879 38.4849 187.896 38.4898C187.927 38.4842 187.959 38.4812 187.99 38.4808C188.033 38.4664 188.069 38.436 188.091 38.3959C188.102 38.3748 188.109 38.3517 188.111 38.3279C188.113 38.3041 188.111 38.2801 188.104 38.2572C188.097 38.2344 188.085 38.2132 188.07 38.1948C188.055 38.1764 188.036 38.1612 188.015 38.15L187.958 38.1198L141.658 14.1468C141.387 14.0083 141.075 13.9713 140.779 14.0425C140.482 14.1137 140.221 14.2884 140.043 14.5351L117.729 45.6518L109.317 57.3857C109.301 57.4062 109.291 57.4298 109.285 57.4549C109.28 57.4799 109.28 57.5058 109.286 57.5308Z" fill="#3F3D56"/>
<path d="M133.342 59.2555L135.125 59.4533L148.357 60.9192L157.129 61.8903L157.648 61.9479L168.594 53.3981L169.013 53.0706L171.598 51.0515L180.796 43.868L180.852 43.3635L184.123 13.8355C184.168 13.4289 184.049 13.0213 183.794 12.7019C183.538 12.3824 183.167 12.1774 182.76 12.1316L139.098 7.29494C138.692 7.25054 138.284 7.36906 137.965 7.62455C137.645 7.88003 137.44 8.25167 137.394 8.65806L135.087 29.4864L133.807 41.034L132.662 51.3647L132.132 56.1624L131.977 57.5521C131.933 57.9588 132.052 58.3665 132.307 58.6858C132.563 59.0051 132.935 59.21 133.342 59.2555Z" fill="#F6F6F6"/>
<path d="M145.34 33.3731L164.253 35.4678L170.96 36.2105C171.256 36.2433 171.556 36.2174 171.842 36.1344C172.128 36.0514 172.395 35.9128 172.628 35.7266C172.861 35.5404 173.054 35.3102 173.198 35.0492C173.341 34.7881 173.432 34.5014 173.465 34.2052C173.498 33.9091 173.472 33.6094 173.389 33.3233C173.306 33.0372 173.167 32.7702 172.981 32.5376C172.795 32.305 172.565 32.1114 172.304 31.9677C172.043 31.8241 171.756 31.7333 171.46 31.7005L163.117 30.7766L145.841 28.8609C145.243 28.7948 144.643 28.969 144.173 29.3451C143.703 29.7213 143.402 30.2686 143.336 30.8667C143.269 31.4648 143.443 32.0649 143.819 32.5349C144.195 33.0049 144.742 33.3064 145.34 33.3731Z" fill="white"/>
<path d="M144.263 41.7394C144.312 41.7482 144.361 41.7569 144.41 41.7617L166.365 44.1939L170.031 44.6008C170.629 44.667 171.229 44.4928 171.699 44.1165C172.169 43.7403 172.47 43.1928 172.536 42.5945C172.603 41.9962 172.428 41.3961 172.052 40.9263C171.676 40.4564 171.128 40.1553 170.53 40.0891L165.23 39.5027L147.838 37.5756L144.912 37.2513C144.326 37.186 143.739 37.3509 143.273 37.7111C142.807 38.0713 142.499 38.5985 142.415 39.1814C142.331 39.7643 142.476 40.3571 142.821 40.8344C143.166 41.3118 143.683 41.6363 144.263 41.7394V41.7394Z" fill="white"/>
<path d="M141.778 49.158C141.958 49.4567 142.204 49.7099 142.498 49.8979C142.792 50.0859 143.125 50.2038 143.471 50.2422L152.47 51.2388L168.497 53.0144L168.5 53.0135L169.013 53.0706L171.598 51.0515C171.614 50.8981 171.614 50.7435 171.599 50.5901C171.544 50.075 171.315 49.594 170.95 49.2266C170.585 48.8592 170.106 48.6275 169.591 48.5697L167.365 48.3223L158.533 47.345L152.179 46.6402L143.97 45.7305C143.55 45.6839 143.124 45.756 142.743 45.9385C142.361 46.1209 142.037 46.4066 141.809 46.7631C141.581 47.1197 141.458 47.5329 141.452 47.9561C141.447 48.3793 141.56 48.7956 141.778 49.1579L141.778 49.158Z" fill="white"/>
<path d="M154.418 23.1464L159.124 23.6676L161.202 23.8985L164.342 24.2459C164.94 24.3121 165.54 24.1379 166.01 23.7617C166.48 23.3854 166.781 22.8379 166.847 22.2396C166.913 21.6413 166.739 21.0412 166.363 20.5714C165.987 20.1015 165.439 19.8004 164.841 19.7342L154.919 18.6361C154.321 18.5696 153.721 18.7434 153.251 19.1193C152.781 19.4953 152.48 20.0425 152.413 20.6406C152.347 21.2387 152.521 21.8387 152.897 22.3087C153.273 22.7786 153.82 23.08 154.418 23.1464V23.1464Z" fill="white"/>
<path d="M115.939 35.7093L121.676 59.4088L131.251 61.2295L140.109 62.9159L149.612 64.7242L152.649 65.302C152.827 65.3356 153.01 65.331 153.186 65.2884C153.361 65.2459 153.526 65.1663 153.669 65.0552L156.105 63.1525L157.647 61.9479L168.594 53.3981L161.634 24.6475C161.565 24.3615 161.415 24.1014 161.202 23.8985C161.015 23.7189 160.786 23.5893 160.536 23.5216C160.286 23.4539 160.023 23.4502 159.771 23.5109L117.075 33.8466C116.678 33.9431 116.335 34.1935 116.122 34.5428C115.909 34.892 115.843 35.3116 115.939 35.7093Z" fill="#007bff"/>
<path d="M129.094 54.5631C129.236 55.1477 129.605 55.6521 130.118 55.9655C130.632 56.2788 131.249 56.3756 131.834 56.2346L156.886 50.1698C157.471 50.0275 157.975 49.6592 158.288 49.1457C158.601 48.6322 158.698 48.0154 158.558 47.4306C158.551 47.4016 158.543 47.373 158.533 47.345C158.373 46.7812 158.001 46.3011 157.495 46.0055C156.989 45.7098 156.388 45.6215 155.819 45.7591L130.766 51.8239C130.181 51.9659 129.677 52.3342 129.363 52.8477C129.05 53.3613 128.953 53.9782 129.094 54.5631Z" fill="white"/>
<path d="M131.251 61.2295L140.109 62.9158L158.872 58.3737C159.457 58.2321 159.962 57.864 160.275 57.3503C160.589 56.8366 160.685 56.2194 160.544 55.6345C160.402 55.0496 160.034 54.5449 159.52 54.2314C159.007 53.918 158.389 53.8214 157.804 53.963L132.752 60.0278C132.228 60.1535 131.767 60.4626 131.452 60.899C131.376 61.0033 131.309 61.1139 131.251 61.2295Z" fill="white"/>
<path d="M149.613 64.7241L152.649 65.302C152.827 65.3356 153.01 65.331 153.186 65.2884C153.361 65.2458 153.526 65.1663 153.669 65.0551L156.105 63.1524L149.613 64.7241Z" fill="white"/>
<path d="M134.142 41.8549C134.284 42.4395 134.653 42.9439 135.166 43.2573C135.68 43.5706 136.297 43.6674 136.881 43.5264L146.585 41.1774C147.169 41.035 147.674 40.6667 147.987 40.1532C148.3 39.6397 148.397 39.023 148.256 38.4381C148.181 38.1239 148.038 37.8296 147.838 37.5756C147.57 37.2322 147.208 36.9733 146.797 36.8299C146.385 36.6864 145.941 36.6645 145.517 36.7667L135.814 39.1157C135.229 39.2574 134.724 39.6255 134.411 40.1392C134.097 40.6529 134.001 41.27 134.142 41.8549V41.8549Z" fill="white"/>
<path d="M140.108 62.9157L149.613 64.7244L152.649 65.3025C152.827 65.3357 153.009 65.3309 153.185 65.2884C153.361 65.2458 153.525 65.1666 153.668 65.0558L156.106 63.1526L155.251 63.3597L153.445 64.7686C153.343 64.8477 153.225 64.9043 153.099 64.9347C152.974 64.9651 152.843 64.9685 152.716 64.9448L150.469 64.5173L140.964 62.7086L140.108 62.9157ZM168.499 53.0149L168.592 53.3972L169.014 53.0694L168.499 53.0149ZM140.108 62.9157L149.613 64.7244L152.649 65.3025C152.827 65.3357 153.009 65.3309 153.185 65.2884C153.361 65.2458 153.525 65.1666 153.668 65.0558L156.106 63.1526L155.251 63.3597L153.445 64.7686C153.343 64.8477 153.225 64.9043 153.099 64.9347C152.974 64.9651 152.843 64.9685 152.716 64.9448L150.469 64.5173L140.964 62.7086L140.108 62.9157ZM140.108 62.9157L149.613 64.7244L152.649 65.3025C152.827 65.3357 153.009 65.3309 153.185 65.2884C153.361 65.2458 153.525 65.1666 153.668 65.0558L156.106 63.1526L155.251 63.3597L153.445 64.7686C153.343 64.8477 153.225 64.9043 153.099 64.9347C152.974 64.9651 152.843 64.9685 152.716 64.9448L150.469 64.5173L140.964 62.7086L140.108 62.9157ZM109.141 58.4797L119.866 102.785C119.946 103.112 120.152 103.395 120.44 103.57C120.727 103.746 121.073 103.8 121.4 103.721L199.028 84.9292C199.355 84.8496 199.638 84.6434 199.813 84.3558C199.989 84.0682 200.043 83.7226 199.964 83.3951L189.239 39.0897C189.189 38.8829 189.088 38.6919 188.945 38.5345C188.802 38.3771 188.622 38.2584 188.421 38.1894C188.272 38.1372 188.115 38.1135 187.958 38.1197C187.775 38.125 187.595 38.1723 187.433 38.2579C187.358 38.2935 187.287 38.3374 187.222 38.3887L180.851 43.3635L171.599 50.5911L168.499 53.0123L168.499 53.0149L168.497 53.0155L157.13 61.8891L155.251 63.3597L153.445 64.7686C153.343 64.8477 153.225 64.9043 153.099 64.9347C152.974 64.9651 152.843 64.9685 152.716 64.9448L150.469 64.5173L140.964 62.7086L131.45 60.8992L110.614 56.934C110.436 56.8988 110.253 56.9027 110.077 56.9456C109.84 57.0035 109.625 57.1282 109.457 57.3049C109.392 57.3744 109.335 57.45 109.286 57.5308C109.114 57.8157 109.062 58.1566 109.141 58.4797ZM140.108 62.9157L149.613 64.7244L152.649 65.3025C152.827 65.3357 153.009 65.3309 153.185 65.2884C153.361 65.2458 153.525 65.1666 153.668 65.0558L156.106 63.1526L155.251 63.3597L153.445 64.7686C153.343 64.8477 153.225 64.9043 153.099 64.9347C152.974 64.9651 152.843 64.9685 152.716 64.9448L150.469 64.5173L140.964 62.7086L140.108 62.9157ZM140.108 62.9157L149.613 64.7244L152.649 65.3025C152.827 65.3357 153.009 65.3309 153.185 65.2884C153.361 65.2458 153.525 65.1666 153.668 65.0558L156.106 63.1526L155.251 63.3597L153.445 64.7686C153.343 64.8477 153.225 64.9043 153.099 64.9347C152.974 64.9651 152.843 64.9685 152.716 64.9448L150.469 64.5173L140.964 62.7086L140.108 62.9157ZM140.108 62.9157L149.613 64.7244L152.649 65.3025C152.827 65.3357 153.009 65.3309 153.185 65.2884C153.361 65.2458 153.525 65.1666 153.668 65.0558L156.106 63.1526L155.251 63.3597L153.445 64.7686C153.343 64.8477 153.225 64.9043 153.099 64.9347C152.974 64.9651 152.843 64.9685 152.716 64.9448L150.469 64.5173L140.964 62.7086L140.108 62.9157Z" fill="white"/>
<path d="M140.108 62.9157L149.613 64.7244L152.649 65.3025C152.827 65.3357 153.009 65.3309 153.185 65.2884C153.361 65.2458 153.525 65.1666 153.668 65.0558L156.106 63.1526L155.251 63.3597L153.445 64.7686C153.343 64.8477 153.225 64.9043 153.099 64.9347C152.974 64.9651 152.843 64.9686 152.716 64.9449L150.469 64.5173L140.964 62.7086L140.108 62.9157ZM168.499 53.0149L168.592 53.3972L169.014 53.0694L168.499 53.0149ZM140.108 62.9157L149.613 64.7244L152.649 65.3025C152.827 65.3357 153.009 65.3309 153.185 65.2884C153.361 65.2458 153.525 65.1666 153.668 65.0558L156.106 63.1526L155.251 63.3597L153.445 64.7686C153.343 64.8477 153.225 64.9043 153.099 64.9347C152.974 64.9651 152.843 64.9686 152.716 64.9449L150.469 64.5173L140.964 62.7086L140.108 62.9157ZM140.108 62.9157L149.613 64.7244L152.649 65.3025C152.827 65.3357 153.009 65.3309 153.185 65.2884C153.361 65.2458 153.525 65.1666 153.668 65.0558L156.106 63.1526L155.251 63.3597L153.445 64.7686C153.343 64.8477 153.225 64.9043 153.099 64.9347C152.974 64.9651 152.843 64.9686 152.716 64.9449L150.469 64.5173L140.964 62.7086L140.108 62.9157ZM109.639 57.5581L109.686 57.5935C109.694 57.5806 109.708 57.569 109.718 57.5554C109.823 57.446 109.954 57.3644 110.098 57.318C110.243 57.2715 110.396 57.2615 110.546 57.2891L131.252 61.228L140.108 62.9157L149.613 64.7244L152.649 65.3025C152.827 65.3357 153.009 65.3309 153.185 65.2884C153.361 65.2458 153.525 65.1666 153.668 65.0558L156.106 63.1526L155.251 63.3597L153.445 64.7686C153.343 64.8477 153.225 64.9043 153.099 64.9347C152.974 64.9651 152.843 64.9685 152.716 64.9448L150.469 64.5173L140.964 62.7086L131.45 60.8992L110.614 56.934C110.436 56.8988 110.253 56.9027 110.077 56.9456L109.639 57.5581ZM109.141 58.4797L119.866 102.785C119.946 103.113 120.152 103.395 120.44 103.57C120.727 103.746 121.073 103.8 121.4 103.721L199.028 84.9292C199.355 84.8497 199.638 84.6434 199.813 84.3558C199.989 84.0682 200.043 83.7227 199.964 83.3951L189.239 39.0897C189.189 38.8829 189.088 38.6919 188.945 38.5345C188.802 38.3772 188.622 38.2584 188.421 38.1894C188.272 38.1372 188.115 38.1136 187.958 38.1198C187.775 38.1251 187.595 38.1723 187.433 38.258C187.358 38.2935 187.287 38.3374 187.222 38.3888L180.851 43.3635L171.599 50.5911L168.499 53.0123L168.499 53.0149L168.497 53.0156L157.13 61.8891L155.251 63.3597L153.445 64.7686C153.343 64.8477 153.225 64.9043 153.099 64.9347C152.974 64.9651 152.843 64.9686 152.716 64.9449L150.469 64.5173L140.964 62.7086L131.45 60.8992L110.614 56.934C110.436 56.8988 110.253 56.9027 110.077 56.9456C109.84 57.0035 109.625 57.1282 109.457 57.305C109.392 57.3744 109.335 57.45 109.286 57.5308C109.114 57.8157 109.062 58.1567 109.141 58.4797ZM109.495 58.3941C109.463 58.2635 109.461 58.1275 109.489 57.996C109.516 57.8645 109.573 57.7408 109.655 57.6341C109.662 57.6184 109.673 57.6046 109.686 57.5935C109.694 57.5806 109.708 57.569 109.718 57.5554C109.823 57.4461 109.954 57.3644 110.098 57.318C110.243 57.2715 110.396 57.2615 110.546 57.2891L131.252 61.228L140.108 62.9157L149.613 64.7244L152.649 65.3025C152.827 65.3357 153.009 65.3309 153.185 65.2884C153.361 65.2458 153.525 65.1666 153.668 65.0558L156.106 63.1526L157.648 61.9481L168.592 53.3972L169.014 53.0694L171.597 51.0512L180.797 43.8666L187.448 38.6727C187.549 38.5938 187.665 38.5374 187.79 38.5072C187.825 38.4987 187.86 38.4929 187.896 38.4898C187.927 38.4842 187.959 38.4812 187.99 38.4808C188.096 38.4798 188.202 38.4971 188.303 38.5318C188.446 38.5817 188.575 38.6667 188.677 38.779C188.779 38.8912 188.851 39.0273 188.888 39.1747L199.613 83.4801C199.641 83.5962 199.646 83.7167 199.628 83.8348C199.609 83.9528 199.568 84.0661 199.506 84.1681C199.443 84.2701 199.362 84.3588 199.265 84.4292C199.169 84.4995 199.059 84.5502 198.943 84.5782L121.315 103.37C121.081 103.426 120.834 103.387 120.629 103.262C120.423 103.136 120.276 102.934 120.22 102.699L109.495 58.3941ZM140.108 62.9157L149.613 64.7244L152.649 65.3026C152.827 65.3357 153.009 65.3309 153.185 65.2884C153.361 65.2459 153.525 65.1666 153.668 65.0558L156.106 63.1527L155.251 63.3598L153.445 64.7686C153.343 64.8477 153.225 64.9044 153.099 64.9347C152.974 64.9651 152.843 64.9686 152.716 64.9449L150.469 64.5173L140.964 62.7086L140.108 62.9157ZM140.108 62.9157L149.613 64.7244L152.649 65.3026C152.827 65.3357 153.009 65.3309 153.185 65.2884C153.361 65.2459 153.525 65.1666 153.668 65.0558L156.106 63.1527L155.251 63.3598L153.445 64.7686C153.343 64.8477 153.225 64.9044 153.099 64.9347C152.974 64.9651 152.843 64.9686 152.716 64.9449L150.469 64.5173L140.964 62.7086L140.108 62.9157ZM140.108 62.9157L149.613 64.7244L152.649 65.3026C152.827 65.3357 153.009 65.3309 153.185 65.2884C153.361 65.2459 153.525 65.1666 153.668 65.0558L156.106 63.1527L155.251 63.3598L153.445 64.7686C153.343 64.8477 153.225 64.9044 153.099 64.9347C152.974 64.9651 152.843 64.9686 152.716 64.9449L150.469 64.5173L140.964 62.7086L140.108 62.9157Z" fill="#3F3D56"/>
<path d="M178.796 76.2247C178.621 75.4987 178.741 74.733 179.13 74.0955C179.519 73.4581 180.145 73.0009 180.871 72.8244L190.668 70.4526C191.393 70.2798 192.157 70.4014 192.793 70.7907C193.428 71.1801 193.884 71.8054 194.059 72.5298C194.234 73.2542 194.116 74.0186 193.728 74.6555C193.341 75.2923 192.718 75.7499 191.994 75.9278L182.196 78.2996C181.47 78.4744 180.705 78.3542 180.067 77.9652C179.43 77.5762 178.972 76.9503 178.796 76.2247Z" fill="#007bff"/>
<path d="M70.521 67.9966C71.8622 67.9966 72.9494 66.9094 72.9494 65.5682C72.9494 64.227 71.8622 63.1397 70.521 63.1397C69.1798 63.1397 68.0925 64.227 68.0925 65.5682C68.0925 66.9094 69.1798 67.9966 70.521 67.9966Z" fill="white"/>
</g>
<defs>
<clipPath id="clip0">
<rect width="200" height="171.206" fill="white"/>
</clipPath>
</defs>
</svg>
