<svg width="278" height="220" viewBox="0 0 278 220" fill="none" xmlns="http://www.w3.org/2000/svg">
<path d="M251.771 0.0709839H26.224C11.808 0.114984 0.133 11.779 0.112 26.2V193.81C0.133 208.231 11.809 219.906 26.224 219.928H251.772C266.181 219.905 277.868 208.231 277.889 193.81V26.2C277.867 11.779 266.181 0.114984 251.771 0.0709839ZM249.004 16.815C252.281 16.815 254.94 19.484 254.94 22.75C254.94 26.038 252.282 28.696 249.004 28.696C245.722 28.696 243.069 26.037 243.069 22.75C243.069 19.483 245.722 16.815 249.004 16.815ZM202.357 17.172H231.546C234.633 17.172 237.128 19.678 237.128 22.749C237.128 25.841 234.633 28.326 231.546 28.326H202.357C199.27 28.326 196.774 25.841 196.774 22.749C196.774 19.679 199.27 17.172 202.357 17.172ZM263.652 193.811C263.631 200.3 258.255 205.682 251.771 205.682H26.224C19.746 205.682 14.367 200.3 14.35 193.811V42.932H263.652V193.811Z" fill="#5E5E5E"/>
<path d="M67.369 132.406L41.78 121.122V117.433L67.369 104.651V110.836L49.737 119.007L67.369 126.244V132.406Z" fill="#5E5E5E"/>
<path d="M102.998 137.637H95.137V120.808C95.137 116.652 93.594 114.579 90.498 114.579C88.295 114.579 86.711 115.328 85.732 116.814C84.75 118.311 84.261 120.731 84.261 124.084V137.637H76.4V97.532H84.261V105.703C84.261 106.343 84.199 107.841 84.079 110.195L83.9 112.506H84.309C86.064 109.685 88.85 108.285 92.659 108.285C96.048 108.285 98.616 109.197 100.363 111.019C102.118 112.842 102.997 115.447 102.997 118.854V137.637H102.998Z" fill="#007bff"/>
<path d="M125.868 131.897C127.238 131.897 128.885 131.593 130.816 130.986V136.835C128.858 137.714 126.448 138.158 123.6 138.158C120.451 138.158 118.164 137.366 116.723 135.771C115.296 134.187 114.575 131.789 114.575 128.621V114.721H110.818V111.411L115.144 108.775L117.414 102.698H122.435V108.829H130.505V114.721H122.435V128.621C122.435 129.738 122.75 130.563 123.376 131.095C124.004 131.625 124.837 131.897 125.868 131.897Z" fill="#007bff"/>
<path d="M165.074 137.637H157.219V120.808C157.219 118.735 156.871 117.172 156.171 116.131C155.477 115.089 154.381 114.579 152.884 114.579C150.871 114.579 149.411 115.316 148.5 116.793C147.594 118.258 147.133 120.699 147.133 124.084V137.637H139.28V108.828H145.283L146.336 112.507H146.781C147.551 111.183 148.669 110.152 150.128 109.403C151.582 108.654 153.265 108.285 155.157 108.285C159.466 108.285 162.389 109.685 163.914 112.506H164.608C165.379 111.16 166.518 110.129 168.026 109.392C169.535 108.654 171.227 108.285 173.115 108.285C176.376 108.285 178.855 109.121 180.526 110.802C182.197 112.473 183.033 115.154 183.033 118.854V137.636H175.155V120.807C175.155 118.734 174.798 117.171 174.114 116.13C173.414 115.088 172.323 114.578 170.826 114.578C168.894 114.578 167.457 115.251 166.502 116.629C165.553 118.007 165.075 120.188 165.075 123.183V137.637H165.074Z" fill="#007bff"/>
<path d="M201.598 137.637H193.743V97.532H201.598V137.637Z" fill="#007bff"/>
<path d="M210.631 126.243L228.264 119.006L210.631 110.835V104.65L236.223 117.432V121.121L210.631 132.405V126.243Z" fill="#5E5E5E"/>
</svg>
