<svg width="278" height="220" viewBox="0 0 278 220" fill="none" xmlns="http://www.w3.org/2000/svg">
<path d="M251.782 0.0769958H26.218C11.808 0.103996 0.121992 11.785 0.110992 26.194V193.816C0.121992 208.22 11.808 219.906 26.218 219.928H251.782C266.18 219.905 277.878 208.22 277.889 193.816V26.194C277.878 11.785 266.181 0.103996 251.782 0.0769958ZM249.004 16.815C252.281 16.815 254.95 19.473 254.95 22.75C254.95 26.027 252.281 28.68 249.004 28.68C245.728 28.68 243.069 26.027 243.069 22.75C243.069 19.473 245.727 16.815 249.004 16.815ZM202.357 17.167H231.546C234.638 17.167 237.123 19.673 237.123 22.75C237.123 25.832 234.638 28.332 231.546 28.332H202.357C199.264 28.332 196.769 25.831 196.769 22.75C196.77 19.673 199.265 17.167 202.357 17.167ZM263.652 193.816C263.631 200.299 258.26 205.681 251.782 205.681H26.218C19.73 205.681 14.369 200.299 14.347 193.816V42.938H263.652V193.816Z" fill="#5E5E5E"/>
<path d="M232.956 170.579H38.512V187.728H232.956V170.579Z" fill="#007bff"/>
<path d="M232.956 62.143H38.512V87.864H232.956V62.143Z" fill="#007bff"/>
<path d="M84.269 100.527H39.825V153.304H84.269V100.527Z" fill="#007bff"/>
<path d="M231.491 101.916H93.991V107.472H231.491V101.916Z" fill="#817B75"/>
<path d="M231.491 118.116H93.991V123.672H231.491V118.116Z" fill="#817B75"/>
<path d="M231.491 134.327H93.991V139.883H231.491V134.327Z" fill="#817B75"/>
<path d="M231.491 150.527H93.991V156.083H231.491V150.527Z" fill="#817B75"/>
</svg>
